<svg width="31" height="31" viewBox="0 0 31 31" fill="none" xmlns="http://www.w3.org/2000/svg">
<path d="M15.75 11.571C15.0436 11.5712 14.3532 11.781 13.7659 12.1736C13.1787 12.5662 12.7211 13.1242 12.451 13.7769C12.1808 14.4296 12.1103 15.1477 12.2483 15.8405C12.3862 16.5333 12.7265 17.1696 13.2261 17.669C13.7257 18.1684 14.3622 18.5085 15.055 18.6462C15.7478 18.7839 16.4659 18.7131 17.1185 18.4427C17.7711 18.1723 18.3289 17.7145 18.7213 17.1271C19.1138 16.5398 19.3232 15.8492 19.3232 15.1429C19.3225 14.1955 18.9458 13.2872 18.2758 12.6175C17.6058 11.9477 16.6973 11.5713 15.75 11.571ZM24.1011 8.82544C23.9193 8.36462 23.6447 7.94608 23.2944 7.59578C22.9441 7.24548 22.5256 6.9709 22.0647 6.78906C20.6585 6.23392 17.3103 6.35848 15.75 6.35848C14.1897 6.35848 10.8449 6.22924 9.4346 6.78906C8.97378 6.9709 8.55524 7.24548 8.20494 7.59578C7.85464 7.94608 7.58005 8.36462 7.39821 8.82544C6.84375 10.2317 6.96763 13.5833 6.96763 15.1422C6.96763 16.7011 6.84375 20.0487 7.40089 21.4596C7.58273 21.9204 7.85732 22.339 8.20761 22.6893C8.55791 23.0396 8.97646 23.3141 9.43728 23.496C10.8435 24.0511 14.1917 23.9266 15.7527 23.9266C17.3136 23.9266 20.6571 24.0558 22.0674 23.496C22.5282 23.3141 22.9468 23.0396 23.2971 22.6893C23.6474 22.339 23.922 21.9204 24.1038 21.4596C24.6629 20.0533 24.5344 16.7018 24.5344 15.1429C24.5344 13.5839 24.6629 10.237 24.1038 8.82611L24.1011 8.82544ZM15.75 20.6339C14.664 20.6339 13.6023 20.3119 12.6993 19.7085C11.7963 19.1051 11.0925 18.2476 10.6769 17.2442C10.2613 16.2408 10.1526 15.1368 10.3644 14.0716C10.5763 13.0064 11.0993 12.028 11.8672 11.2601C12.6352 10.4921 13.6136 9.96916 14.6787 9.75729C15.7439 9.54542 16.848 9.65416 17.8513 10.0698C18.8547 10.4854 19.7123 11.1892 20.3157 12.0922C20.919 12.9952 21.2411 14.0568 21.2411 15.1429C21.242 15.8642 21.1005 16.5786 20.8249 17.2452C20.5492 17.9118 20.1448 18.5175 19.6347 19.0276C19.1247 19.5377 18.519 19.9421 17.8524 20.2177C17.1858 20.4934 16.4713 20.6348 15.75 20.6339ZM21.4674 10.7031C21.2139 10.7033 20.966 10.6282 20.7552 10.4874C20.5443 10.3467 20.3799 10.1466 20.2828 9.91237C20.1857 9.67818 20.1602 9.42046 20.2096 9.17179C20.259 8.92312 20.381 8.69468 20.5602 8.51536C20.7394 8.33605 20.9678 8.21391 21.2164 8.1644C21.4651 8.11489 21.7228 8.14024 21.9571 8.23723C22.1913 8.33422 22.3915 8.49849 22.5324 8.70928C22.6733 8.92007 22.7484 9.1679 22.7484 9.42142C22.7491 9.58978 22.7166 9.75662 22.6527 9.91237C22.5888 10.0681 22.4947 10.2097 22.376 10.3291C22.2572 10.4484 22.116 10.5431 21.9606 10.6077C21.8051 10.6724 21.6384 10.7057 21.4701 10.7058L21.4674 10.7031ZM27.5357 0.142853H3.96429C3.1118 0.142853 2.29424 0.4815 1.69144 1.0843C1.08865 1.68709 0.75 2.50466 0.75 3.35714L0.75 26.9286C0.75 27.781 1.08865 28.5986 1.69144 29.2014C2.29424 29.8042 3.1118 30.1429 3.96429 30.1429H27.5357C28.3882 30.1429 29.2058 29.8042 29.8086 29.2014C30.4114 28.5986 30.75 27.781 30.75 26.9286V3.35714C30.75 2.50466 30.4114 1.68709 29.8086 1.0843C29.2058 0.4815 28.3882 0.142853 27.5357 0.142853ZM26.3893 19.5625C26.3029 21.2788 25.9112 22.7995 24.6583 24.0491C23.4054 25.2987 21.8859 25.6984 20.1717 25.7801C18.4031 25.8799 13.1009 25.8799 11.3324 25.7801C9.61607 25.6937 8.10067 25.3013 6.84576 24.0491C5.59085 22.7969 5.19643 21.2754 5.11473 19.5625C5.01496 17.7933 5.01496 12.4904 5.11473 10.7232C5.20112 9.00692 5.58817 7.48616 6.84576 6.2366C8.10335 4.98705 9.62277 4.59196 11.3324 4.51026C13.1009 4.41049 18.4031 4.41049 20.1717 4.51026C21.8879 4.59665 23.408 4.98906 24.6583 6.24129C25.9085 7.49352 26.3076 9.01495 26.3893 10.7312C26.4891 12.4937 26.4891 17.792 26.3893 19.5625Z" fill="white" fill-opacity="0.6"/>
</svg>
