<svg width="30" height="31" viewBox="0 0 30 31" fill="none" xmlns="http://www.w3.org/2000/svg">
<path d="M28.4397 18.0759C28.6339 17.1384 28.7545 16.1406 28.7545 15.1429C28.7545 7.54241 22.6004 1.39508 15.0067 1.39508C14.0089 1.39508 13.0179 1.50892 12.0737 1.70982C10.8013 0.725442 9.22098 0.142853 7.5 0.142853C3.36161 0.142853 0 3.50446 0 7.64285C0 9.36383 0.582589 10.9442 1.56027 12.2098C1.36607 13.1473 1.24554 14.1451 1.24554 15.1429C1.24554 22.7433 7.39955 28.8906 14.9933 28.8906C15.9911 28.8906 16.9821 28.7768 17.9263 28.5759C19.1987 29.5536 20.779 30.1362 22.4933 30.1362C26.6317 30.1362 29.9933 26.7745 29.9933 22.6362C30 20.9219 29.4174 19.3415 28.4397 18.0759ZM15.4085 24.2031C11.0156 24.2031 7.33929 22.2478 7.33929 19.8504C7.33929 18.779 7.94196 17.8013 9.31473 17.8013C11.404 17.8013 11.5982 20.808 15.2143 20.808C16.9353 20.808 18.0469 20.0446 18.0469 19.0469C18.0469 17.7946 16.9754 17.6004 15.2344 17.1719C11.0491 16.1406 7.34598 15.6987 7.34598 11.3326C7.34598 7.3683 11.2701 5.90178 14.6518 5.90178C18.3415 5.90178 22.0714 7.3683 22.0714 9.6116C22.0714 10.7433 21.308 11.7411 20.0424 11.7411C18.1473 11.7411 18.0871 9.49776 15.0201 9.49776C13.2991 9.49776 12.2076 9.96651 12.2076 11.0045C12.2076 12.3304 13.6004 12.4643 16.8348 13.2143C19.6071 13.837 22.9085 15.0089 22.9085 18.4107C22.9085 22.3683 19.0848 24.2031 15.4085 24.2031Z" fill="white" fill-opacity="0.6"/>
</svg>
